<svg width="16" height="18" viewBox="0 0 16 18" fill="none" xmlns="http://www.w3.org/2000/svg">
<path d="M13.7325 6.26569L13.8153 6.26682C14.1229 6.29224 14.3587 6.54764 14.375 6.85505L14.3671 7.02645L14.105 10.2358L13.8301 13.3678C13.7719 13.9931 13.7198 14.5204 13.6749 14.9355C13.5187 16.3823 12.5796 17.277 11.1638 17.3034C8.95781 17.3442 6.83731 17.3438 4.7781 17.2992C3.40331 17.2704 2.47805 16.3661 2.32462 14.9414L2.21858 13.8918L2.03328 11.8559L1.84347 9.62173L1.62643 6.9399C1.59946 6.59582 1.84959 6.29447 2.18512 6.2668C2.49269 6.24145 2.76525 6.45487 2.82932 6.75565L2.85426 7.00145L3.05805 9.5156L3.28057 12.1216C3.38038 13.2497 3.46695 14.1627 3.53622 14.804C3.62365 15.6158 4.05115 16.0337 4.80343 16.0495C6.84654 16.0936 8.95123 16.0941 11.1417 16.0536C11.9398 16.0387 12.374 15.625 12.4633 14.7978L12.5689 13.7538C12.5998 13.4321 12.6328 13.0769 12.6678 12.6911L12.8905 10.1282L13.1588 6.83959C13.1836 6.52419 13.4327 6.28242 13.7325 6.26569ZM1.10949 4.82432C0.772879 4.82432 0.5 4.54449 0.5 4.1993C0.5 3.88288 0.729294 3.62137 1.02679 3.57998L1.10949 3.57428H3.76476C4.0803 3.57428 4.35654 3.36607 4.45535 3.06608L4.47953 2.97345L4.68587 1.92111C4.86759 1.22414 5.45767 0.727916 6.14916 0.671948L6.27993 0.666672H9.7199C10.4229 0.666672 11.0436 1.1219 11.2826 1.82533L11.3228 1.96008L11.5203 2.9732C11.5822 3.29061 11.8354 3.52767 12.1417 3.56815L12.2351 3.57428H14.8905C15.2271 3.57428 15.5 3.85411 15.5 4.1993C15.5 4.51573 15.2707 4.77723 14.9732 4.81862L14.8905 4.82432H1.10949ZM9.7199 1.91672H6.27993C6.10892 1.91672 5.95691 2.01936 5.89377 2.14836L5.87235 2.20504L5.67483 3.21866C5.65067 3.34237 5.61566 3.46151 5.57093 3.5751L10.429 3.57526C10.4011 3.50439 10.377 3.43136 10.3569 3.35641L10.325 3.21841L10.1364 2.244C10.0923 2.07493 9.95612 1.95116 9.79185 1.92286L9.7199 1.91672Z" fill="#FF7CA3"/>
</svg>
